<svg xmlns="http://www.w3.org/2000/svg" viewBox="0 0 512 512">
  <!-- 발가락 5개 -->
  <ellipse cx="200" cy="68" rx="42" ry="52" fill="#7CB342"/>
  <ellipse cx="280" cy="42" rx="36" ry="42" fill="#8BC34A"/>
  <ellipse cx="345" cy="55" rx="30" ry="38" fill="#7CB342"/>
  <ellipse cx="395" cy="95" rx="26" ry="34" fill="#8BC34A"/>
  <ellipse cx="128" cy="115" rx="38" ry="46" fill="#8BC34A"/>
  <!-- 발바닥 메인 -->
  <path d="M100 180 C80 260, 90 340, 140 400 C180 445, 230 470, 280 475 C330 480, 370 450, 390 400 C420 330, 420 260, 380 180 C360 130, 310 100, 260 110 C200 120, 130 130, 100 180Z" fill="#7CB342"/>
  <!-- 발바닥 하이라이트 -->
  <path d="M150 200 C140 260, 150 320, 180 370 C200 400, 240 420, 270 420 C300 415, 320 390, 340 360 C370 310, 370 250, 350 200 C335 165, 290 150, 260 155 C220 160, 170 170, 150 200Z" fill="#8BC34A" opacity="0.5"/>
</svg>
